<svg version="1.1" id="Layer_1" xmlns="http://www.w3.org/2000/svg" xmlns:xlink="http://www.w3.org/1999/xlink"
	 width="100%" viewBox="380 380 1350 1350" xml:space="preserve">

<g transform="translate(0,180)">
  <!-- 单 path 橙色主体 -->
<path fill="#FF8247" opacity="1.000000" stroke="none" d="
M805.894226,1117.253296
	C805.292114,1116.842896 804.689941,1116.432617 804.000793,1115.357666
	C803.252808,1112.940308 803.050354,1110.735474 801.848267,1109.516235
	C797.515381,1105.121582 792.963135,1100.918213 788.221558,1096.969360
	C787.017639,1095.966797 784.806641,1096.173462 783.058411,1095.824463
	C781.377258,1094.122803 779.696106,1092.421265 778.193970,1090.194824
	C775.292358,1084.472656 772.527100,1079.050781 769.036865,1074.144775
	C765.928894,1069.776123 761.686279,1066.218994 758.539734,1061.872803
	C753.731628,1055.231689 749.391907,1048.248047 744.936035,1041.356323
	C741.229065,1035.622803 737.952087,1029.579468 733.871704,1024.132446
	C731.770691,1021.327698 732.019348,1016.287781 726.944702,1015.999329
	C725.628906,1013.573181 724.313110,1011.147034 723.325989,1008.300171
	C725.971680,1004.258850 723.281250,1001.780396 721.505554,999.203003
	C721.235168,998.810486 719.771667,999.239990 718.859985,999.289246
	C717.894165,997.426758 716.928345,995.564331 716.268433,993.126465
	C718.745361,989.935425 717.696716,987.668274 715.885315,985.402100
	C712.506775,981.175354 712.905334,980.091064 718.355835,978.761719
	C719.951599,978.372559 721.606140,978.202332 723.242737,978.006409
	C731.029236,977.074463 739.350952,977.580139 746.472778,974.895935
	C755.398621,971.531799 764.026489,973.499268 772.720276,973.312134
	C782.708801,973.097168 792.723816,974.630188 802.732544,974.704529
	C813.371460,974.783569 824.074585,973.139771 834.454102,976.847290
	C835.684082,978.544250 836.895142,980.255310 838.147156,981.935913
	C845.970642,992.438049 853.803345,1002.933350 861.505188,1014.000488
	C861.526978,1015.586182 861.676636,1016.602234 861.826294,1017.618347
	C862.610046,1017.284363 863.393921,1016.950439 864.177734,1016.616516
	C876.640442,1028.809204 889.807800,1040.127808 904.871338,1049.939697
	C905.487488,1053.249023 906.123718,1055.458740 908.955139,1052.147217
	C910.968445,1053.188354 912.981750,1054.229492 914.821533,1055.617188
	C912.823914,1056.365479 910.666138,1057.601074 909.232300,1057.027344
	C902.367615,1054.280640 895.496704,1051.409668 889.038757,1047.839844
	C885.349060,1045.800293 882.375610,1042.414795 879.204224,1039.499756
	C874.444824,1035.125244 869.422363,1030.957031 865.190186,1026.108765
	C859.524841,1019.618713 853.570190,1013.849976 845.246643,1010.892883
	C838.391968,1008.457703 831.298157,996.728027 832.339478,989.581299
	C832.946289,985.416626 831.584290,983.675964 827.334778,983.971924
	C821.219116,984.397888 815.090027,984.881897 808.966919,984.878723
	C802.676208,984.875427 796.384033,984.346497 790.095947,983.987915
	C787.007812,983.811890 785.072021,984.514893 784.814026,988.228516
	C784.690979,989.999023 783.331726,991.920959 782.040710,993.321045
	C779.714966,995.843445 774.228394,995.586121 772.726135,992.885132
	C770.918457,989.635132 772.849243,987.563599 775.686279,986.158630
	C776.714661,985.649353 777.843079,985.342163 778.925842,984.942810
	C778.498535,984.125854 778.071289,983.308899 777.643982,982.491943
	C775.155579,982.376648 772.654602,982.048523 770.181763,982.195129
	C766.315430,982.424255 762.468018,982.973450 758.612976,983.390320
	C758.127319,983.442810 757.632324,983.468994 757.161072,983.585632
	C754.141846,984.333374 751.127991,985.102966 747.377502,986.051147
	C745.877991,992.065186 747.812866,994.553162 755.120178,994.157715
	C755.925232,994.114136 756.789368,994.174866 757.548035,994.424500
	C762.073792,995.913635 766.537537,997.602295 771.096924,998.975342
	C776.876709,1000.715942 779.842896,1004.012939 777.640625,1009.619324
	C776.054565,1013.657227 771.744812,1018.643921 767.917847,1019.375000
	C759.161316,1021.047729 755.627991,1026.316040 760.406555,1033.990356
	C761.631287,1035.957275 763.297729,1037.689453 764.284729,1039.756836
	C767.301208,1046.075562 771.667542,1048.677124 778.564209,1047.900024
	C784.144287,1047.271484 785.784058,1048.851929 784.907166,1054.319702
	C784.273987,1058.268311 783.504761,1062.270874 777.872925,1063.362305
	C779.958008,1065.439453 782.170776,1066.679565 784.268555,1068.090454
	C785.266785,1068.761841 786.598145,1069.629150 786.832397,1070.629272
	C788.062256,1075.880249 788.782959,1081.256836 790.158936,1086.463257
	C790.529602,1087.865723 792.397827,1089.165649 793.879761,1089.924316
	C797.775696,1091.918457 802.629333,1092.762451 805.611267,1095.619751
	C808.619873,1098.502441 811.443665,1103.246582 811.464600,1107.190430
	C811.496521,1113.200928 814.561218,1113.578491 818.745544,1114.045166
	C823.304443,1114.553467 825.799805,1116.742920 827.301270,1121.567261
	C828.456360,1125.278809 831.614197,1129.413086 835.013977,1131.179443
	C844.331543,1136.020264 853.455811,1140.914673 860.960022,1148.409058
	C861.764526,1149.212524 862.792603,1149.857666 863.822693,1150.359131
	C872.565979,1154.615967 881.285767,1158.926636 890.112488,1163.004761
	C895.232910,1165.370483 901.011292,1166.609985 905.660645,1169.636108
	C915.568542,1176.084839 927.220581,1176.874756 937.909668,1180.691040
	C938.979675,1181.073242 940.848938,1180.303467 941.895752,1179.488403
	C949.060242,1173.910400 948.974060,1173.937134 957.017700,1178.919312
	C958.505859,1179.841187 961.163086,1180.817261 962.223328,1180.132080
	C965.689941,1177.891846 968.886230,1177.666138 972.564697,1179.229858
	C973.409546,1179.588867 974.689026,1179.068115 975.728943,1178.799316
	C979.209045,1177.900513 982.754700,1177.153320 986.102417,1175.890381
	C987.605347,1175.323242 989.713379,1173.751465 989.813354,1172.497437
	C990.472046,1164.233276 990.861328,1155.930908 990.846252,1147.641968
	C990.842834,1145.736328 989.285767,1143.466553 987.809143,1142.005981
	C984.655151,1138.886475 983.781128,1135.236694 986.663513,1131.950195
	C990.180237,1127.940430 991.529114,1123.600220 991.084961,1118.301025
	C990.682800,1113.503052 991.268066,1108.626221 990.935791,1103.817505
	C990.461609,1096.955811 989.547546,1090.124390 988.792480,1083.008057
	C985.924866,1083.408691 983.831543,1083.858276 981.720886,1083.965820
	C975.817139,1084.266846 974.591980,1082.714111 976.002808,1076.990601
	C990.606506,1077.758423 1005.249268,1079.614502 1019.806580,1079.091553
	C1064.824951,1077.474121 1104.557373,1061.294678 1138.811890,1032.283936
	C1181.232910,996.356750 1204.611938,950.247620 1210.135132,895.006592
	C1210.383667,892.520813 1210.666870,890.033752 1210.779419,887.540344
	C1210.890137,885.087036 1210.803711,882.624878 1210.803711,879.783936
	C1230.441650,879.783936 1249.541382,879.783936 1269.145508,879.783936
	C1270.000366,851.523804 1265.479614,824.519165 1257.026367,797.691833
	C1251.294678,803.493958 1245.938110,808.916321 1240.742798,814.175537
	C1234.503784,807.712219 1228.555908,801.550537 1222.626587,795.407959
	C1238.111816,780.487366 1254.460205,764.735229 1270.373047,749.402588
	C1285.673462,778.877441 1295.159302,812.210571 1298.718994,847.060974
	C1305.957886,917.932617 1290.259766,983.500427 1250.319214,1042.645508
	C1210.773193,1101.206055 1156.281494,1139.678955 1087.961060,1159.986572
	C1079.529663,1162.272461 1071.834839,1164.406738 1064.140137,1166.540894
	C1064.065308,1166.217163 1063.990479,1165.893433 1063.915649,1165.569702
	C1071.948364,1164.290527 1079.981079,1163.011230 1088.013794,1161.731934
	C1142.882080,1150.602295 1190.809570,1125.772583 1231.776001,1087.808716
	C1289.093750,1034.691895 1320.857178,968.804504 1328.089722,891.117065
	C1331.687378,852.473633 1326.609131,814.700623 1315.294800,777.683655
	C1314.813477,776.108887 1314.404541,774.512085 1313.856934,772.549805
	C1323.088989,768.163879 1332.221191,763.825317 1341.359985,759.483643
	C1375.673096,849.498230 1369.955811,992.933105 1262.424683,1101.076416
	C1149.875122,1214.266602 972.936279,1232.065552 841.957153,1144.326660
	C841.996277,1143.340820 841.934082,1142.826904 841.871887,1142.313110
	C841.145203,1142.547974 840.418579,1142.782837 839.691956,1143.017822
	C839.521423,1142.998535 839.350830,1142.979126 839.268005,1142.457031
	C838.128723,1138.054443 833.417969,1135.171387 829.536011,1135.944580
	C829.536011,1135.944580 829.104736,1135.872925 829.213013,1135.454590
	C829.224548,1134.528198 829.127930,1134.020142 829.031311,1133.511963
	C828.688599,1133.956909 828.345825,1134.401978 828.003113,1134.846924
	C826.933350,1134.170776 825.863586,1133.494629 824.898132,1132.397339
	C825.150574,1131.575073 825.298767,1131.174072 825.446899,1130.772949
	C824.585388,1130.867432 823.723816,1130.961792 822.862305,1131.056274
	C822.534119,1131.121216 822.255127,1131.032227 821.976685,1130.187988
	C819.519226,1122.487061 813.420288,1119.368408 807.383911,1116.225464
	C807.133606,1116.095093 806.401733,1116.889648 805.894226,1117.253296
z

M834.432495,976.474609
	C824.074585,973.139771 813.371460,974.783569 802.732544,974.704529
	C792.723816,974.630188 782.708801,973.097168 772.720276,973.312134
	C764.026489,973.499268 755.398621,971.531799 746.472778,974.895935
	C739.350952,977.580139 731.029236,977.074463 723.242737,978.006409
	C721.606140,978.202332 719.951599,978.372559 718.355835,978.761719
	C712.905334,980.091064 712.506775,981.175354 715.885315,985.402100
	C717.696716,987.668274 718.745361,989.935425 716.308472,992.767151
	C711.467896,980.038025 706.197571,967.290527 702.450806,954.109924
	C691.848938,916.813843 687.971069,878.669861 691.080017,840.023926
	C695.678955,782.856689 713.758728,730.133972 745.864563,682.563599
	C799.752991,602.718628 874.505676,553.958069 969.052368,536.641968
	C1031.823364,525.145508 1093.093140,532.916199 1152.337769,556.580505
	C1152.940186,556.821106 1153.503540,557.159607 1154.444214,557.633179
	C1148.928101,566.677917 1143.484863,575.602844 1137.852539,584.837952
	C1131.808105,582.585327 1125.861938,580.150635 1119.776978,578.134766
	C1041.352051,552.153320 964.996033,558.730164 891.245605,594.545288
	C823.119263,627.629333 775.334351,680.597473 745.008118,749.659729
	C742.900757,754.458923 741.148071,759.413818 739.022888,764.962952
	C736.596680,772.527527 734.378052,779.425537 731.975586,786.524658
	C731.156067,790.118469 730.520386,793.511169 729.580444,797.048523
	C728.938965,798.205139 728.601746,799.217102 728.264465,800.229065
	C728.697388,800.328613 729.130371,800.428223 729.563293,800.527771
	C729.713989,799.358276 729.864624,798.188782 730.321899,796.819580
	C731.689880,793.172974 732.751221,789.726013 733.857422,785.878052
	C736.304321,778.665833 738.706299,771.854553 741.108398,765.043274
	C747.889099,752.630432 753.803162,739.634399 761.665649,727.949402
	C771.945923,712.671021 782.913513,697.672241 795.118713,683.913452
	C815.044373,661.451416 838.797363,643.333191 864.933472,628.506287
	C898.937683,609.215698 935.205383,596.552063 974.622437,592.387817
	C978.587646,598.575073 980.842712,604.583862 979.013062,611.507874
	C978.359070,613.982849 976.883606,617.087891 977.769592,618.970459
	C980.960205,625.749756 980.270447,632.468994 979.158020,639.401489
	C978.667358,642.459290 978.472473,645.591492 978.458984,648.691284
	C978.445068,651.872131 978.822205,655.054321 979.017883,658.236511
	C979.275696,662.429321 979.523315,666.622620 979.796570,671.167786
	C984.435608,670.281616 987.788818,670.041504 990.841980,668.956848
	C994.690247,667.589783 995.177734,663.074097 992.403992,660.164001
	C991.122131,658.819092 989.349854,655.751282 989.702332,655.405884
	C991.549500,653.595642 993.978638,651.281189 996.256409,651.225769
	C1001.837097,651.089661 1007.011902,651.293579 1008.764221,644.443726
	C1008.824463,644.208069 1009.662048,644.171204 1010.137390,644.041626
	C1010.239197,655.092468 1010.341003,666.143372 1010.062500,677.679260
	C1009.386169,678.331787 1009.161560,678.567322 1009.008301,678.870911
	C985.470764,679.108032 962.535339,683.288635 940.503784,691.247498
	C928.665710,695.524048 917.228088,701.308533 906.293396,707.600769
	C885.459106,719.589478 867.719116,735.481445 852.685486,754.210266
	C836.457214,774.427490 824.076416,796.862183 817.016602,821.876770
	C813.966431,832.684143 812.109802,843.872681 810.372314,854.991455
	C809.065979,863.350952 807.920166,871.916687 808.309448,880.316162
	C808.848938,891.960999 810.939880,903.530823 812.285034,915.142212
	C814.430786,933.663147 822.149414,950.357056 829.350525,967.208496
	C830.682190,970.324707 832.706360,973.145020 834.432495,976.474609
z

M975.669556,1076.801025
	C974.591980,1082.714111 975.817139,1084.266846 981.720886,1083.965820
	C983.831543,1083.858276 985.924866,1083.408691 988.792480,1083.008057
	C989.547546,1090.124390 990.461609,1096.955811 990.935791,1103.817505
	C991.268066,1108.626221 990.682800,1113.503052 991.084961,1118.301025
	C991.529114,1123.600220 990.180237,1127.940430 986.663513,1131.950195
	C983.781128,1135.236694 984.655151,1138.886475 987.809143,1142.005981
	C989.285767,1143.466553 990.842834,1145.736328 990.846252,1147.641968
	C990.861328,1155.930908 990.472046,1164.233276 989.813354,1172.497437
	C989.713379,1173.751465 987.605347,1175.323242 986.102417,1175.890381
	C982.754700,1177.153320 979.209045,1177.900513 975.728943,1178.799316
	C974.689026,1179.068115 973.409546,1179.588867 972.564697,1179.229858
	C968.886230,1177.666138 965.689941,1177.891846 962.223328,1180.132080
	C961.163086,1180.817261 958.505859,1179.841187 957.017700,1178.919312
	C948.974060,1173.937134 949.060242,1173.910400 941.895752,1179.488403
	C940.848938,1180.303467 938.979675,1181.073242 937.909668,1180.691040
	C927.220581,1176.874756 915.568542,1176.084839 905.660645,1169.636108
	C901.011292,1166.609985 895.232910,1165.370483 890.112488,1163.004761
	C881.285767,1158.926636 872.565979,1154.615967 863.822693,1150.359131
	C862.792603,1149.857666 861.764526,1149.212524 860.960022,1148.409058
	C853.455811,1140.914673 844.331543,1136.020264 835.013977,1131.179443
	C831.614197,1129.413086 828.456360,1125.278809 827.301270,1121.567261
	C825.799805,1116.742920 823.304443,1114.553467 818.745544,1114.045166
	C814.561218,1113.578491 811.496521,1113.200928 811.464600,1107.190430
	C811.443665,1103.246582 808.619873,1098.502441 805.611267,1095.619751
	C802.629333,1092.762451 797.775696,1091.918457 793.879761,1089.924316
	C792.397827,1089.165649 790.529602,1087.865723 790.158936,1086.463257
	C788.782959,1081.256836 788.062256,1075.880249 786.832397,1070.629272
	C786.598145,1069.629150 785.266785,1068.761841 784.268555,1068.090454
	C782.170776,1066.679565 779.958008,1065.439453 777.872925,1063.362305
	C783.504761,1062.270874 784.273987,1058.268311 784.907166,1054.319702
	C785.784058,1048.851929 784.144287,1047.271484 778.564209,1047.900024
	C771.667542,1048.677124 767.301208,1046.075562 764.284729,1039.756836
	C763.297729,1037.689453 761.631287,1035.957275 760.406555,1033.990356
	C755.627991,1026.316040 759.161316,1021.047729 767.917847,1019.375000
	C771.744812,1018.643921 776.054565,1013.657227 777.640625,1009.619324
	C779.842896,1004.012939 776.876709,1000.715942 771.096924,998.975342
	C766.537537,997.602295 762.073792,995.913635 757.548035,994.424500
	C756.789368,994.174866 755.925232,994.114136 755.120178,994.157715
	C747.812866,994.553162 745.877991,992.065186 747.377502,986.051147
	C751.127991,985.102966 754.141846,984.333374 757.161072,983.585632
	C757.632324,983.468994 758.127319,983.442810 758.612976,983.390320
	C762.468018,982.973450 766.315430,982.424255 770.181763,982.195129
	C772.654602,982.048523 775.155579,982.376648 777.643982,982.491943
	C778.071289,983.308899 778.498535,984.125854 778.925842,984.942810
	C777.843079,985.342163 776.714661,985.649353 775.686279,986.158630
	C772.849243,987.563599 770.918457,989.635132 772.726135,992.885132
	C774.228394,995.586121 779.714966,995.843445 782.040710,993.321045
	C783.331726,991.920959 784.690979,989.999023 784.814026,988.228516
	C785.072021,984.514893 787.007812,983.811890 790.095947,983.987915
	C796.384033,984.346497 802.676208,984.875427 808.966919,984.878723
	C815.090027,984.881897 821.219116,984.397888 827.334778,983.971924
	C831.584290,983.675964 832.946289,985.416626 832.339478,989.581299
	C831.298157,996.728027 838.391968,1008.457703 845.246643,1010.892883
	C853.570190,1013.849976 859.524841,1019.618713 865.190186,1026.108765
	C869.422363,1030.957031 874.444824,1035.125244 879.204224,1039.499756
	C882.375610,1042.414795 885.349060,1045.800293 889.038757,1047.839844
	C895.496704,1051.409668 902.367615,1054.280640 909.232300,1057.027344
	C910.666138,1057.601074 912.823914,1056.365479 915.022827,1055.896729
	C931.334595,1063.730225 947.660889,1070.593384 965.111633,1074.448486
	C968.513123,1075.200073 971.927795,1075.891968 975.669556,1076.801025
z

M1010.279175,643.657593
	C1009.662048,644.171204 1008.824463,644.208069 1008.764221,644.443726
	C1007.011902,651.293579 1001.837097,651.089661 996.256409,651.225769
	C993.978638,651.281189 991.549500,653.595642 989.702332,655.405884
	C989.349854,655.751282 991.122131,658.819092 992.403992,660.164001
	C995.177734,663.074097 994.690247,667.589783 990.841980,668.956848
	C987.788818,670.041504 984.435608,670.281616 979.796570,671.167786
	C979.523315,666.622620 979.275696,662.429321 979.017883,658.236511
	C978.822205,655.054321 978.445068,651.872131 978.458984,648.691284
	C978.472473,645.591492 978.667358,642.459290 979.158020,639.401489
	C980.270447,632.468994 980.960205,625.749756 977.769592,618.970459
	C976.883606,617.087891 978.359070,613.982849 979.013062,611.507874
	C980.842712,604.583862 978.587646,598.575073 975.045044,592.446167
	C982.774170,591.346008 990.533447,590.321045 998.325439,589.896729
	C1051.557007,586.998047 1101.335571,599.345703 1148.239868,624.178223
	C1150.116211,625.171692 1151.905396,626.329773 1154.117676,627.637207
	C1137.304565,644.015991 1120.753662,660.139160 1103.999390,676.460449
	C1098.693970,670.912659 1092.754639,664.701904 1086.563599,658.228027
	C1092.956909,651.906921 1099.312134,645.623535 1105.781738,639.226990
	C1088.466675,628.734375 1036.372314,618.872925 1010.420898,621.126770
	C1010.420898,628.452454 1010.420898,635.862976 1010.279175,643.657593
z"/>


  <!-- 蓝色部分 -->
  <path fill="#614CF3" opacity="1.000000" stroke="none"
	d="
M1196.816650,789.816284
	C1191.512451,795.142029 1186.512695,800.273438 1181.387817,805.276672
	C1172.775757,813.684570 1162.401367,813.799561 1153.980347,805.379089
	C1133.484741,784.885071 1113.060791,764.318970 1092.688232,743.702393
	C1084.540649,735.457214 1085.026245,726.454529 1093.960205,717.461975
	C1128.123901,683.074036 1162.319946,648.718384 1196.498535,614.345093
	C1200.139404,610.683472 1203.712769,606.954346 1207.371216,603.310547
	C1216.922119,593.797791 1226.623535,593.747070 1236.061279,603.239685
	C1254.382568,621.667358 1272.331543,640.480286 1291.062988,658.479797
	C1303.741211,670.662781 1305.555908,681.554504 1291.103760,695.617249
	C1259.350586,726.514893 1228.364136,758.200439 1196.816650,789.816284
M1213.612671,730.170044
	C1227.168091,719.651367 1230.971069,701.846375 1222.752319,687.380127
	C1214.760620,673.314148 1197.157959,667.070374 1182.155884,673.270996
	C1170.210938,678.208069 1163.288452,687.361267 1162.075562,700.195496
	C1160.811523,713.571533 1165.891479,724.495728 1177.364746,731.623291
	C1189.253052,739.008667 1201.352905,738.278687 1213.612671,730.170044
M1141.255859,717.979187
	C1140.666748,713.285767 1140.077637,708.592346 1139.638672,705.094788
	C1130.690796,713.685425 1121.289795,722.710999 1112.354858,731.289062
	C1130.804565,749.858154 1149.280151,768.453369 1166.604614,785.890076
	C1176.025513,776.824890 1185.609863,767.602417 1195.032837,758.535278
	C1165.375244,755.614807 1148.541626,743.180847 1141.255859,717.979187
M1195.437256,646.824646
	C1193.859375,650.613770 1197.281128,648.678955 1198.014282,648.723083
	C1224.426025,650.314087 1245.002686,669.456055 1248.322510,695.754333
	C1248.727173,698.958313 1248.845337,702.198425 1249.026978,704.531555
	C1258.561401,695.496277 1268.290894,686.276062 1277.797974,677.266541
	C1258.895630,658.388855 1240.325073,639.842468 1221.190430,620.732727
	C1212.943481,629.082703 1204.428345,637.704224 1195.437256,646.824646
z"/>

  <!-- 绿色部分 -->
  <path fill="#65D0B4" opacity="1.000000" stroke="none"
	d="
M1290.066040,730.139099
	C1293.964844,720.038696 1302.331543,715.505249 1310.890259,718.515015
	C1318.719238,721.268127 1323.010010,729.551086 1320.907715,737.852844
	C1319.023071,745.294250 1310.960938,750.742615 1303.458740,749.644592
	C1295.018188,748.409363 1289.405640,741.867737 1289.631470,733.485168
	C1289.658081,732.494080 1289.867798,731.507874 1290.066040,730.139099
z"/>
  <path fill="#65D0B4" opacity="1.000000" stroke="none"
	d="
M1167.714111,576.473511
	C1178.270508,574.077454 1186.554565,578.874695 1188.720093,588.271606
	C1190.616455,596.500427 1185.266113,604.846313 1176.845581,606.794678
	C1169.112183,608.583984 1160.906372,604.359802 1158.097778,597.143738
	C1155.022949,589.243347 1158.630249,581.262695 1167.714111,576.473511
z"/>
</g>
</svg>
